<?xml version="1.0" encoding="UTF-8" standalone="no"?>
<!-- Created with Inkscape (http://www.inkscape.org/) -->

<svg
   xmlns:dc="http://purl.org/dc/elements/1.1/"
   xmlns:cc="http://creativecommons.org/ns#"
   xmlns:rdf="http://www.w3.org/1999/02/22-rdf-syntax-ns#"
   xmlns:svg="http://www.w3.org/2000/svg"
   xmlns="http://www.w3.org/2000/svg"
   xmlns:sodipodi="http://sodipodi.sourceforge.net/DTD/sodipodi-0.dtd"
   xmlns:inkscape="http://www.inkscape.org/namespaces/inkscape"
   width="300mm"
   height="300mm"
   viewBox="0 0 300 300"
   version="1.1"
   id="svg8"
   inkscape:version="0.92.5 (2060ec1f9f, 2020-04-08)"
   sodipodi:docname="CLogo.svg">
  <defs
     id="defs2" />
  <sodipodi:namedview
     id="base"
     pagecolor="#ffffff"
     bordercolor="#666666"
     borderopacity="1.0"
     inkscape:pageopacity="0.0"
     inkscape:pageshadow="2"
     inkscape:zoom="0.7"
     inkscape:cx="278.28459"
     inkscape:cy="551.72915"
     inkscape:document-units="mm"
     inkscape:current-layer="layer1"
     showgrid="false"
     inkscape:snap-page="false"
     inkscape:window-width="2560"
     inkscape:window-height="1057"
     inkscape:window-x="-8"
     inkscape:window-y="1072"
     inkscape:window-maximized="1" />
  <metadata
     id="metadata5">
    <rdf:RDF>
      <cc:Work
         rdf:about="">
        <dc:format>image/svg+xml</dc:format>
        <dc:type
           rdf:resource="http://purl.org/dc/dcmitype/StillImage" />
        <dc:title></dc:title>
      </cc:Work>
    </rdf:RDF>
  </metadata>
  <g
     inkscape:label="Layer 1"
     inkscape:groupmode="layer"
     id="layer1"
     transform="translate(0,3)">
    <path
       style="fill:#800000;stroke-width:1.49999976"
       d="M 566.92969 0 A 566.92912 566.92912 0 0 0 0 566.92969 A 566.92912 566.92912 0 0 0 566.92969 1133.8574 A 566.92912 566.92912 0 0 0 1107.3516 736.16992 L 792.6543 736.16992 A 282.47167 282.47167 0 0 1 782.97461 748.90234 A 282.47167 282.47167 0 0 1 763.72852 769.5625 A 282.47167 282.47167 0 0 1 742.51562 788.19727 A 282.47167 282.47167 0 0 1 719.54883 804.62109 A 282.47167 282.47167 0 0 1 695.05664 818.66992 A 282.47167 282.47167 0 0 1 669.28516 830.20312 A 282.47167 282.47167 0 0 1 642.49023 839.10742 A 282.47167 282.47167 0 0 1 614.93945 845.29102 A 282.47167 282.47167 0 0 1 586.91016 848.69336 A 282.47167 282.47167 0 0 1 566.92969 849.40039 A 282.47167 282.47167 0 0 0 566.92773 849.40039 A 282.47167 282.47167 0 0 1 538.72852 847.99023 A 282.47167 282.47167 0 0 1 510.81055 843.76953 A 282.47167 282.47167 0 0 1 483.45312 836.78516 A 282.47167 282.47167 0 0 1 456.92969 827.10352 A 282.47167 282.47167 0 0 1 431.50586 814.82227 A 282.47167 282.47167 0 0 0 431.50391 814.82227 A 282.47167 282.47167 0 0 1 407.43359 800.0625 A 282.47167 282.47167 0 0 1 384.95508 782.97461 A 282.47167 282.47167 0 0 1 364.29688 763.72852 A 282.47167 282.47167 0 0 1 345.66211 742.51562 A 282.47167 282.47167 0 0 1 329.23828 719.54883 A 282.47167 282.47167 0 0 1 315.1875 695.05664 A 282.47167 282.47167 0 0 1 303.6543 669.28516 A 282.47167 282.47167 0 0 1 294.75195 642.49023 A 282.47167 282.47167 0 0 1 288.56836 614.93945 A 282.47167 282.47167 0 0 1 285.16602 586.91016 A 282.47167 282.47167 0 0 1 284.45703 566.92969 A 282.47167 282.47167 0 0 0 284.45703 566.92773 A 282.47167 282.47167 0 0 1 285.86914 538.72852 A 282.47167 282.47167 0 0 1 290.08789 510.81055 A 282.47167 282.47167 0 0 1 297.07422 483.45312 A 282.47167 282.47167 0 0 1 306.75586 456.92969 A 282.47167 282.47167 0 0 1 319.03711 431.50586 A 282.47167 282.47167 0 0 1 333.79492 407.43359 A 282.47167 282.47167 0 0 1 350.88281 384.95508 A 282.47167 282.47167 0 0 1 370.12891 364.29688 A 282.47167 282.47167 0 0 1 391.3418 345.66211 A 282.47167 282.47167 0 0 1 414.30859 329.23828 A 282.47167 282.47167 0 0 1 438.80078 315.1875 A 282.47167 282.47167 0 0 1 464.57422 303.6543 A 282.47167 282.47167 0 0 1 491.36914 294.75195 A 282.47167 282.47167 0 0 1 518.91797 288.56836 A 282.47167 282.47167 0 0 1 546.94727 285.16406 A 282.47167 282.47167 0 0 1 566.92969 284.45703 A 282.47167 282.47167 0 0 1 595.12891 285.86914 A 282.47167 282.47167 0 0 1 623.04688 290.08789 A 282.47167 282.47167 0 0 1 650.4043 297.07422 A 282.47167 282.47167 0 0 0 650.40625 297.07422 A 282.47167 282.47167 0 0 1 676.92969 306.75586 A 282.47167 282.47167 0 0 1 702.35352 319.03711 A 282.47167 282.47167 0 0 1 726.42383 333.79492 A 282.47167 282.47167 0 0 1 748.90234 350.88281 A 282.47167 282.47167 0 0 1 769.5625 370.12891 A 282.47167 282.47167 0 0 1 788.19727 391.3418 A 282.47167 282.47167 0 0 1 792.73633 397.68945 L 1107.916 397.68945 A 566.92912 566.92912 0 0 0 566.92969 0 z "
       id="path3715"
       transform="matrix(0.26458333,0,0,0.26458333,0,-3)" />
    <path
       style="fill:#d45500;stroke-width:1.708956"
       d="M 566.92969 94.488281 A 472.44093 472.44093 0 0 0 94.488281 566.92969 A 472.44093 472.44093 0 0 0 566.92969 1039.3691 A 472.44093 472.44093 0 0 0 1007.9102 736.16992 L 792.6543 736.16992 A 282.47167 282.47167 0 0 1 782.97461 748.90234 A 282.47167 282.47167 0 0 1 763.72852 769.5625 A 282.47167 282.47167 0 0 1 742.51562 788.19727 A 282.47167 282.47167 0 0 1 719.54883 804.62109 A 282.47167 282.47167 0 0 1 695.05664 818.66992 A 282.47167 282.47167 0 0 1 669.28516 830.20312 A 282.47167 282.47167 0 0 1 642.49023 839.10742 A 282.47167 282.47167 0 0 1 614.93945 845.29102 A 282.47167 282.47167 0 0 1 586.91016 848.69336 A 282.47167 282.47167 0 0 1 566.92969 849.40039 A 282.47167 282.47167 0 0 0 566.92773 849.40039 A 282.47167 282.47167 0 0 1 538.72852 847.99023 A 282.47167 282.47167 0 0 1 510.81055 843.76953 A 282.47167 282.47167 0 0 1 483.45312 836.78516 A 282.47167 282.47167 0 0 1 456.92969 827.10352 A 282.47167 282.47167 0 0 1 431.50586 814.82227 A 282.47167 282.47167 0 0 0 431.50391 814.82227 A 282.47167 282.47167 0 0 1 407.43359 800.0625 A 282.47167 282.47167 0 0 1 384.95508 782.97461 A 282.47167 282.47167 0 0 1 364.29688 763.72852 A 282.47167 282.47167 0 0 1 345.66211 742.51562 A 282.47167 282.47167 0 0 1 329.23828 719.54883 A 282.47167 282.47167 0 0 1 315.1875 695.05664 A 282.47167 282.47167 0 0 1 303.6543 669.28516 A 282.47167 282.47167 0 0 1 294.75195 642.49023 A 282.47167 282.47167 0 0 1 288.56836 614.93945 A 282.47167 282.47167 0 0 1 285.16602 586.91016 A 282.47167 282.47167 0 0 1 284.45703 566.92969 A 282.47167 282.47167 0 0 0 284.45703 566.92773 A 282.47167 282.47167 0 0 1 285.86914 538.72852 A 282.47167 282.47167 0 0 1 290.08789 510.81055 A 282.47167 282.47167 0 0 1 297.07422 483.45312 A 282.47167 282.47167 0 0 1 306.75586 456.92969 A 282.47167 282.47167 0 0 1 319.03711 431.50586 A 282.47167 282.47167 0 0 1 333.79492 407.43359 A 282.47167 282.47167 0 0 1 350.88281 384.95508 A 282.47167 282.47167 0 0 1 370.12891 364.29688 A 282.47167 282.47167 0 0 1 391.3418 345.66211 A 282.47167 282.47167 0 0 1 414.30859 329.23828 A 282.47167 282.47167 0 0 1 438.80078 315.1875 A 282.47167 282.47167 0 0 1 464.57422 303.6543 A 282.47167 282.47167 0 0 1 491.36914 294.75195 A 282.47167 282.47167 0 0 1 518.91797 288.56836 A 282.47167 282.47167 0 0 1 546.94727 285.16406 A 282.47167 282.47167 0 0 1 566.92969 284.45703 A 282.47167 282.47167 0 0 1 595.12891 285.86914 A 282.47167 282.47167 0 0 1 623.04688 290.08789 A 282.47167 282.47167 0 0 1 650.4043 297.07422 A 282.47167 282.47167 0 0 0 650.40625 297.07422 A 282.47167 282.47167 0 0 1 676.92969 306.75586 A 282.47167 282.47167 0 0 1 702.35352 319.03711 A 282.47167 282.47167 0 0 1 726.42383 333.79492 A 282.47167 282.47167 0 0 1 748.90234 350.88281 A 282.47167 282.47167 0 0 1 769.5625 370.12891 A 282.47167 282.47167 0 0 1 788.19727 391.3418 A 282.47167 282.47167 0 0 1 792.73633 397.68945 L 1007.4551 397.68945 A 472.44093 472.44093 0 0 0 566.92969 94.488281 z "
       id="path3730"
       transform="matrix(0.26458333,0,0,0.26458333,0,-3)" />
    <path
       style="fill:#ffdd55;stroke:none;stroke-width:2.53630137;stroke-opacity:1"
       d="M 566.92969 188.97656 A 377.95276 377.95276 0 0 0 188.97656 566.92969 A 377.95276 377.95276 0 0 0 566.92969 944.88281 A 377.95276 377.95276 0 0 0 904.74805 736.16992 L 792.6543 736.16992 A 282.47167 282.47167 0 0 1 782.97461 748.90234 A 282.47167 282.47167 0 0 1 763.72852 769.5625 A 282.47167 282.47167 0 0 1 742.51562 788.19727 A 282.47167 282.47167 0 0 1 719.54883 804.62109 A 282.47167 282.47167 0 0 1 695.05664 818.66992 A 282.47167 282.47167 0 0 1 669.28516 830.20312 A 282.47167 282.47167 0 0 1 642.49023 839.10742 A 282.47167 282.47167 0 0 1 614.93945 845.29102 A 282.47167 282.47167 0 0 1 586.91016 848.69336 A 282.47167 282.47167 0 0 1 566.92969 849.40039 A 282.47167 282.47167 0 0 1 538.72852 847.99023 A 282.47167 282.47167 0 0 1 510.81055 843.76953 A 282.47167 282.47167 0 0 1 483.45312 836.78516 A 282.47167 282.47167 0 0 1 456.92969 827.10352 A 282.47167 282.47167 0 0 1 431.50586 814.82227 A 282.47167 282.47167 0 0 1 407.43359 800.0625 A 282.47167 282.47167 0 0 1 384.95508 782.97461 A 282.47167 282.47167 0 0 1 364.29688 763.72852 A 282.47167 282.47167 0 0 1 345.66211 742.51562 A 282.47167 282.47167 0 0 1 329.23828 719.54883 A 282.47167 282.47167 0 0 1 315.1875 695.05664 A 282.47167 282.47167 0 0 1 303.6543 669.28516 A 282.47167 282.47167 0 0 1 294.75195 642.49023 A 282.47167 282.47167 0 0 1 288.56836 614.93945 A 282.47167 282.47167 0 0 1 285.16602 586.91016 A 282.47167 282.47167 0 0 1 284.45703 566.92969 A 282.47167 282.47167 0 0 1 285.86914 538.72852 A 282.47167 282.47167 0 0 1 290.08789 510.81055 A 282.47167 282.47167 0 0 1 297.07422 483.45312 A 282.47167 282.47167 0 0 1 306.75586 456.92969 A 282.47167 282.47167 0 0 1 319.03711 431.50586 A 282.47167 282.47167 0 0 1 333.79492 407.43359 A 282.47167 282.47167 0 0 1 350.88281 384.95508 A 282.47167 282.47167 0 0 1 370.12891 364.29688 A 282.47167 282.47167 0 0 1 391.3418 345.66211 A 282.47167 282.47167 0 0 1 414.30859 329.23828 A 282.47167 282.47167 0 0 1 438.80078 315.1875 A 282.47167 282.47167 0 0 1 464.57422 303.6543 A 282.47167 282.47167 0 0 1 491.36914 294.75195 A 282.47167 282.47167 0 0 1 518.91797 288.56836 A 282.47167 282.47167 0 0 1 546.94727 285.16406 A 282.47167 282.47167 0 0 1 566.92969 284.45703 A 282.47167 282.47167 0 0 1 595.12891 285.86914 A 282.47167 282.47167 0 0 1 623.04688 290.08789 A 282.47167 282.47167 0 0 1 650.4043 297.07422 A 282.47167 282.47167 0 0 1 676.92969 306.75586 A 282.47167 282.47167 0 0 1 702.35352 319.03711 A 282.47167 282.47167 0 0 1 726.42383 333.79492 A 282.47167 282.47167 0 0 1 748.90234 350.88281 A 282.47167 282.47167 0 0 1 769.5625 370.12891 A 282.47167 282.47167 0 0 1 788.19727 391.3418 A 282.47167 282.47167 0 0 1 792.73633 397.68945 L 904.39258 397.68945 A 377.95276 377.95276 0 0 0 566.92969 188.97656 z "
       id="path3742"
       transform="matrix(0.26458333,0,0,0.26458333,0,-3)" />
  </g>
</svg>
